<?xml version="1.0" encoding="UTF-8"?>
<svg xmlns="http://www.w3.org/2000/svg" viewBox="0 0 64 64" role="img" aria-labelledby="logoTitle logoDesc">
  <title id="logoTitle">Water Quality &amp; Redox Logo</title>
  <desc id="logoDesc">Abstract water droplet with redox bolt and measurement ripples</desc>
  <defs>
    <linearGradient id="gradDroplet" x1="0" y1="0" x2="1" y2="1">
      <stop offset="0%" stop-color="#2563EB"/>
      <stop offset="100%" stop-color="#06B6D4"/>
    </linearGradient>
    <linearGradient id="gradBolt" x1="0" y1="0" x2="0" y2="1">
      <stop offset="0%" stop-color="#F59E0B"/>
      <stop offset="100%" stop-color="#EF4444"/>
    </linearGradient>
    <filter id="shadow" x="-20%" y="-20%" width="140%" height="140%">
      <feDropShadow dx="0" dy="2" stdDeviation="2" flood-color="#0f172a" flood-opacity="0.15"/>
    </filter>
  </defs>

  <!-- Background ripple circles -->
  <g opacity="0.25" stroke="#93C5FD" stroke-width="1.5" fill="none" transform="translate(0,2)">
    <ellipse cx="32" cy="48" rx="18" ry="6"/>
    <ellipse cx="32" cy="48" rx="12" ry="4"/>
  </g>

  <!-- Water droplet -->
  <g filter="url(#shadow)">
    <path d="M32 8 C32 8 16 26 16 36 c0 9.941 8.059 18 18 18s18-8.059 18-18C52 26 32 8 32 8z" fill="url(#gradDroplet)"/>
    <!-- Specular highlight -->
    <path d="M26 22c-3 4-5 8-5 12 0 6 4 10 10 10" fill="none" stroke="#ffffff" stroke-opacity="0.35" stroke-width="2" stroke-linecap="round"/>
  </g>

  <!-- Redox lightning bolt inside droplet -->
  <path d="M36 20l-8 12h6l-2 10l10-14h-6l0-8z" fill="url(#gradBolt)" opacity="0.95"/>

  <!-- Baseline underline -->
  <path d="M18 52h28" stroke="#2563EB" stroke-opacity="0.5" stroke-width="2" stroke-linecap="round"/>
</svg>
