<?xml version="1.0" encoding="UTF-8"?>
<svg xmlns="http://www.w3.org/2000/svg" viewBox="0 0 64 64" role="img" aria-labelledby="alt2Title alt2Desc">
  <title id="alt2Title">Water Quality &amp; Redox • Hex Mark</title>
  <desc id="alt2Desc">Hexagonal sensor mark with a negative-space droplet and a quality check motif.</desc>
  <defs>
    <linearGradient id="hexGrad" x1="0" y1="0" x2="1" y2="1">
      <stop offset="0%" stop-color="#1E40AF"/>
      <stop offset="100%" stop-color="#2563EB"/>
    </linearGradient>
    <linearGradient id="dropletGrad" x1="0" y1="0" x2="0" y2="1">
      <stop offset="0%" stop-color="#06B6D4"/>
      <stop offset="100%" stop-color="#22D3EE"/>
    </linearGradient>
    <filter id="hxShadow" x="-20%" y="-20%" width="140%" height="140%">
      <feDropShadow dx="0" dy="2" stdDeviation="2" flood-color="#0f172a" flood-opacity="0.15"/>
    </filter>
  </defs>

  <!-- Hexagon badge -->
  <g filter="url(#hxShadow)">
    <path d="M32 8l16 9v18l-16 9-16-9V17z" fill="url(#hexGrad)"/>
  </g>

  <!-- Inner droplet (positive) -->
  <path d="M32 16c0 0-8 9.5-8 15 0 4.418 3.582 8 8 8s8-3.582 8-8c0-5.5-8-15-8-15z" fill="url(#dropletGrad)"/>

  <!-- Quality check (tick) overlay -->
  <path d="M27 34l3 3 7-8" fill="none" stroke="#10B981" stroke-width="3" stroke-linecap="round" stroke-linejoin="round"/>

  <!-- Sensor grill detail -->
  <g stroke="#60A5FA" stroke-linecap="round" opacity="0.45">
    <path d="M16 26h6"/>
    <path d="M42 26h6"/>
    <path d="M18 32h4"/>
    <path d="M42 32h4"/>
    <path d="M16 38h6"/>
    <path d="M42 38h6"/>
  </g>
</svg>

