<?xml version="1.0" encoding="UTF-8"?>
<svg xmlns="http://www.w3.org/2000/svg" viewBox="0 0 64 64" role="img" aria-labelledby="alt1Title alt1Desc">
  <title id="alt1Title">Water Quality &amp; Redox • Roundel</title>
  <desc id="alt1Desc">Round badge with concentric water waves and a central droplet with a redox lightning motif.</desc>
  <defs>
    <linearGradient id="waveGrad" x1="0" y1="0" x2="1" y2="1">
      <stop offset="0%" stop-color="#2563EB"/>
      <stop offset="100%" stop-color="#06B6D4"/>
    </linearGradient>
    <linearGradient id="boltGrad" x1="0" y1="0" x2="0" y2="1">
      <stop offset="0%" stop-color="#F59E0B"/>
      <stop offset="100%" stop-color="#EF4444"/>
    </linearGradient>
    <filter id="softShadow" x="-20%" y="-20%" width="140%" height="140%">
      <feDropShadow dx="0" dy="2" stdDeviation="2" flood-color="#0f172a" flood-opacity="0.15"/>
    </filter>
  </defs>

  <!-- Outer roundel -->
  <g filter="url(#softShadow)">
    <circle cx="32" cy="32" r="24" fill="#ffffff"/>
    <circle cx="32" cy="32" r="23" fill="none" stroke="url(#waveGrad)" stroke-width="2"/>
  </g>

  <!-- Concentric waves -->
  <g fill="none" stroke="#93C5FD" stroke-linecap="round" opacity="0.8">
    <path d="M10 36c4-3 8-4 12-4s8 1 12 4 8 4 12 4 8-1 12-4" stroke-width="1.2"/>
    <path d="M12 40c4-2.5 8-3.5 12-3.5s8 1 12 3.5 8 3.5 12 3.5 8-1 12-3.5" stroke-width="1" opacity="0.7"/>
    <path d="M14 44c4-2 8-3 12-3s8 1 12 3 8 3 12 3 8-1 12-3" stroke-width="0.9" opacity="0.55"/>
  </g>

  <!-- Central droplet -->
  <path d="M32 16c0 0-10 11.5-10 18 0 5.523 4.477 10 10 10s10-4.477 10-10c0-6.5-10-18-10-18z" fill="url(#waveGrad)"/>
  <!-- Inner redox bolt -->
  <path d="M35 23l-7 10h5l-2 8l8-11h-5l1-7z" fill="url(#boltGrad)"/>

  <!-- Subtle baseline -->
  <path d="M22 50h20" stroke="#2563EB" stroke-opacity="0.5" stroke-width="2" stroke-linecap="round"/>
</svg>

